HIERARCHY
ROOT Pelvis
{
	OFFSET 0.000000 0.000000 0.000000
	CHANNELS 6 Xposition Yposition Zposition Zrotation Yrotation Xrotation 
	JOINT Left_hip
	{
		OFFSET 0.068973 -0.091024 -0.007589
		CHANNELS 3 Zrotation Yrotation Xrotation
		JOINT Left_knee
		{
			OFFSET 0.036482 -0.391037 -0.003979
			CHANNELS 3 Zrotation Yrotation Xrotation
			JOINT Left_ankle
			{
				OFFSET -0.012239 -0.415469 -0.043440
				CHANNELS 3 Zrotation Yrotation Xrotation
				JOINT Left_foot
				{
					OFFSET 0.023806 -0.058558 0.118702
					CHANNELS 3 Zrotation Yrotation Xrotation
					End Site
					{
						OFFSET 0.000000 0.000000 0.000000
					}
				}
			}
		}
	}
	JOINT Right_hip
	{
		OFFSET -0.066552 -0.090468 -0.003847
		CHANNELS 3 Zrotation Yrotation Xrotation
		JOINT Right_knee
		{
			OFFSET -0.042435 -0.398340 -0.006400
			CHANNELS 3 Zrotation Yrotation Xrotation
			JOINT Right_ankle
			{
				OFFSET 0.014931 -0.415421 -0.041327
				CHANNELS 3 Zrotation Yrotation Xrotation
				JOINT Right_foot
				{
					OFFSET -0.021472 -0.049410 0.121889
					CHANNELS 3 Zrotation Yrotation Xrotation
					End Site
					{
						OFFSET 0.000000 0.000000 0.000000
					}
				}
			}
		}
	}
	JOINT Spine1
	{
		OFFSET -0.002904 0.105700 -0.022855
		CHANNELS 3 Zrotation Yrotation Xrotation
		JOINT Spine2
		{
			OFFSET 0.004179 0.132554 -0.002501
			CHANNELS 3 Zrotation Yrotation Xrotation
			JOINT Spine3
			{
				OFFSET 0.001987 0.049603 0.025988
				CHANNELS 3 Zrotation Yrotation Xrotation
				JOINT Neck
				{
					OFFSET -0.003935 0.211336 -0.045638
					CHANNELS 3 Zrotation Yrotation Xrotation
					JOINT Head
					{
						OFFSET 0.003906 0.065991 0.051018
						CHANNELS 3 Zrotation Yrotation Xrotation
						End Site
						{
							OFFSET 0.000000 0.000000 0.000000
						}
					}
				}
				JOINT Left_collar
				{
					OFFSET 0.072882 0.117751 -0.036270
					CHANNELS 3 Zrotation Yrotation Xrotation
					JOINT Left_shoulder
					{
						OFFSET 0.082118 0.032630 -0.005771
						CHANNELS 3 Zrotation Yrotation Xrotation
						JOINT Left_elbow
						{
							OFFSET 0.263305 -0.015144 -0.028095
							CHANNELS 3 Zrotation Yrotation Xrotation
							JOINT Left_wrist
							{
								OFFSET 0.250741 0.010115 -0.000759
								CHANNELS 3 Zrotation Yrotation Xrotation
								JOINT Left_palm
								{
									OFFSET 0.080683 -0.009989 -0.013613
									CHANNELS 3 Zrotation Yrotation Xrotation
									End Site
									{
										OFFSET 0.000000 0.000000 0.000000
									}
								}
							}
						}
					}
				}
				JOINT Right_collar
				{
					OFFSET -0.074811 0.116132 -0.040385
					CHANNELS 3 Zrotation Yrotation Xrotation
					JOINT Right_shoulder
					{
						OFFSET -0.085089 0.032943 -0.007484
						CHANNELS 3 Zrotation Yrotation Xrotation
						JOINT Right_elbow
						{
							OFFSET -0.254763 -0.014219 -0.020321
							CHANNELS 3 Zrotation Yrotation Xrotation
							JOINT Right_wrist
							{
								OFFSET -0.256597 0.009233 -0.005063
								CHANNELS 3 Zrotation Yrotation Xrotation
								JOINT Right_palm
								{
									OFFSET -0.080528 -0.007219 -0.010379
									CHANNELS 3 Zrotation Yrotation Xrotation
									End Site
									{
										OFFSET 0.000000 0.000000 0.000000
									}
								}
							}
						}
					}
				}
			}
		}
	}
}
MOTION
Frames: 9
Frame Time: 0.100000
0.213443 0.966395 -0.316830 175.800602 26.285625 -109.319574 -5.214566 0.094621 5.356399 0.351029 -8.342415 0.046216 -8.754108 16.426284 18.308473 19.912051 5.487241 -17.607620 -2.622593 -4.768733 -27.966770 -0.768923 -13.590224 32.430782 14.095538 -21.685137 19.862331 -35.603558 2.735418 -11.842390 4.410804 -4.203037 11.882932 0.177081 -3.831445 -4.509184 -0.192161 2.163442 7.750139 -14.721795 -22.293894 30.218960 15.266932 -10.159399 0.280754 11.083872 -5.050925 -13.639746 -13.320931 -44.481520 -18.430597 145.548668 -40.643894 -108.527977 42.166771 -18.364257 -4.330326 -20.317864 -7.095837 -1.309629 -17.081306 3.204872 -16.073085 13.903430 24.664724 -22.836556 -137.471171 40.310077 -115.048893 -33.676994 18.273225 -10.670164 17.966150 7.897500 -0.385818 
0.219954 0.967711 -0.316702 178.796993 26.418577 -108.162051 -4.590392 0.464425 5.112625 -0.086153 -9.559906 1.117022 -7.469627 16.028155 16.838710 17.936946 4.975322 -16.411572 -5.851796 -6.452872 -25.376173 -0.963878 -11.826519 32.103305 12.560299 -21.581792 20.693976 -33.416013 2.473077 -11.051313 4.791318 -4.170412 11.342619 -0.849653 -5.403432 -2.495959 -1.683842 1.794466 7.754439 -17.833103 -24.256528 35.533348 14.668241 -8.761262 9.521843 2.464657 -11.850443 -11.764415 -22.363440 -48.526209 -7.782466 124.391261 -53.700250 -94.129197 51.204701 -14.912744 -9.847181 -20.356979 -5.987666 2.588009 -13.062569 3.740515 -15.752467 24.271873 19.640034 -14.461602 -124.152880 50.469871 -109.254633 -37.439699 14.881912 -16.372984 19.545058 8.493481 1.075374 
0.224918 0.966501 -0.313704 -175.738269 26.581624 -105.895399 -4.615350 0.637641 5.673412 -0.345467 -11.767171 1.091525 -5.710749 14.919291 17.029146 13.561279 5.022054 -16.200280 -6.655984 -7.282788 -21.014121 -0.735500 -10.059182 28.804830 12.125771 -22.674913 23.004624 -33.123569 1.962399 -10.330947 4.876743 -4.127390 11.300583 -2.035528 -7.479489 -0.187373 -1.835089 0.964034 9.197475 -22.873688 -21.912702 39.665337 14.712060 -5.086096 9.892311 -1.011324 -21.256752 -8.501231 -31.229017 -44.256321 -1.701521 74.109346 -58.736621 -52.717967 39.702675 -11.051956 -9.871448 -20.237860 -5.771302 2.033439 -14.539316 7.786130 -15.607728 32.809256 12.944128 -9.137593 -95.420473 65.625364 -84.136711 -27.661111 12.801727 -14.566300 21.361221 8.683225 -1.115987 
0.232076 0.962578 -0.307761 -168.593609 27.531248 -102.215967 -5.054372 0.892371 5.236354 -1.012031 -11.689600 2.440178 -5.290391 14.976949 14.350322 13.330028 4.078486 -13.101030 -5.885690 -6.936561 -16.699847 -0.073029 -8.446891 22.794151 9.853859 -21.538641 24.379041 -27.966079 1.352947 -9.690564 4.362965 -4.012076 12.704811 -4.010119 -8.618364 3.649683 -3.401154 0.121284 7.313980 -25.395324 -18.886965 43.775899 13.626975 -2.445860 9.101719 -6.398021 -25.432252 -4.301174 -33.069871 -38.659161 4.699617 31.511159 -53.620236 -12.584700 31.019591 -14.559199 -4.224417 -16.967655 -4.717728 1.676707 -13.162192 11.093088 -14.455971 34.521365 10.131510 -2.851007 -29.779978 70.647107 -20.642332 -18.912837 14.901882 -10.718394 19.222589 7.294130 -0.574328 
0.240391 0.959055 -0.298591 -161.784988 28.239019 -99.152266 -4.026802 3.224114 5.328603 -1.436634 -7.896892 4.207104 -5.454839 17.593431 10.081442 15.443728 2.112604 -8.822181 -4.256366 -5.945436 -11.929406 0.622373 -5.954003 15.838572 7.640206 -19.253624 26.218538 -21.300085 1.391434 -8.984061 2.728947 -3.579826 13.919777 -6.298898 -9.074761 12.539857 -4.963140 -0.338267 4.570016 -26.886815 -15.356944 47.566476 11.958636 -1.122039 6.904664 -15.225992 -28.925301 2.064154 -28.380545 -33.816716 7.430682 7.420760 -43.961288 11.567407 20.011513 -18.411378 9.225682 -14.763731 -5.560074 -2.478304 -7.848042 16.847980 -9.941059 29.799668 9.023849 -0.163593 6.681349 57.508277 14.199057 -9.021168 16.747285 -1.902099 17.422802 6.484015 -1.185115 
0.241620 0.955008 -0.290474 -157.437843 28.874665 -96.688066 -3.748268 4.261177 4.105600 -1.926560 -5.508505 6.943472 -4.383195 19.283146 7.905768 14.019352 1.932534 -5.234259 -3.912862 -6.639780 -9.767928 0.229050 -5.873723 11.850150 6.095179 -18.434992 28.475948 -17.069807 0.367142 -8.569771 0.991621 -3.154306 17.283161 -8.596011 -9.718231 21.497545 -5.456868 -0.918241 3.364611 -28.076944 -13.014281 51.628441 13.063085 -0.599856 0.147543 -22.241218 -35.169384 9.360262 -21.867276 -28.447035 5.800978 -1.381902 -36.452826 20.703032 16.022344 -20.064201 18.397627 -13.344146 -5.788144 -6.076259 -6.357842 23.396913 -5.400845 26.960821 3.505239 -1.154536 16.853579 51.955110 26.720516 -6.535008 18.158073 5.524374 17.374550 5.517537 -2.677480 
0.238902 0.952164 -0.283895 -156.418276 29.083863 -93.631749 -4.115513 2.115014 -0.781083 -2.834941 -8.028921 9.741978 -3.644840 17.991185 9.408088 12.505863 3.237879 -4.623878 -3.945017 -6.373747 -12.333012 0.100803 -5.243438 13.254437 6.778965 -18.168455 29.650430 -18.070016 -0.761330 -8.781350 -0.338408 -2.593732 22.434902 -9.121988 -10.300019 25.691534 -4.753322 -1.440132 4.225890 -29.452831 -10.918425 54.277089 15.477171 0.045778 -3.250513 -25.333725 -39.175863 13.396185 -17.844984 -27.065322 4.003151 -4.529340 -34.322939 27.600655 15.665530 -21.572169 24.215769 -12.901585 -5.944830 -7.339873 -5.608263 23.842421 -3.173373 27.395189 -5.265548 -2.952758 22.793311 58.065579 37.049650 -6.891053 20.080534 9.722018 18.966899 5.635172 -4.047251 
0.234257 0.945836 -0.277659 -156.744243 30.017413 -88.186139 -4.273187 -2.491640 -10.805074 -3.170686 -8.064888 12.633748 -1.202725 13.618746 11.172626 7.823362 7.478657 -2.676036 -5.635940 -7.866415 -20.283693 -0.474308 -10.328570 22.957460 6.955601 -16.084766 31.819290 -16.184621 -3.110184 -7.677206 -1.827055 -1.580064 27.569803 -7.952128 -10.764218 27.146685 -3.464455 -2.573964 2.063746 -29.611557 -8.036577 55.489646 16.217221 -0.892410 -7.803448 -26.073805 -39.208759 14.221685 -16.883084 -25.430827 4.541024 -4.336455 -44.367559 26.223737 12.617228 -22.492694 19.523235 -14.937616 -6.393698 -8.574800 -2.560057 19.603904 -1.334634 30.287317 -15.714442 -3.325353 27.008643 72.902235 46.097832 -5.332601 21.011891 10.338612 22.656344 7.228047 -6.800221 
0.238130 0.937235 -0.269479 -155.685896 30.820196 -83.325495 -2.352329 -4.797354 -19.503173 -4.183111 -9.886369 13.432493 -1.267927 11.474198 13.679941 5.874559 9.537713 -2.574091 -4.805780 -10.748951 -24.773821 -3.167344 -18.988005 30.512686 3.417940 -20.263279 30.852988 -16.330129 -4.080264 -4.782339 -3.106706 -0.774782 30.799162 -7.623318 -11.138513 25.145875 -2.484661 -3.443090 3.803220 -28.016312 -3.003395 54.934651 16.508498 1.701170 -9.564779 -24.593888 -38.862040 14.176958 -15.354971 -24.587147 2.920523 -5.260663 -50.367060 29.438618 13.480858 -23.272645 17.802847 -17.507906 -6.692633 -8.991176 -2.880043 13.805389 -1.592690 38.281206 -27.351713 -7.291244 92.517444 83.915565 115.717593 -7.271028 21.514029 5.841633 27.077811 8.905992 -7.123396 
